Patient4_TMGait_0pt4_01_left_10_GRF.mot
version=1
nRows=45
nColumns=19
inDegrees=no
endheader
time	F1x	F1y	F1z	M1x	M1y	M1z	F2x	F2y	F2z	M2x	M2y	M2z	EC1x	EC1y	EC1z	EC2x	EC2y	EC2z
11.98	-2.0866	-4.8261	-0.5994	1.2865	-1.4983	-6.9478	-11.0856	725.1055	-56.5732	260.8858	61.8552	740.6337	-0.0592	0.0182	-0.0073	-0.0462	0.0165	0.9585
11.9935	-1.5982	-2.6876	-0.335	0.63336	-1.1431	-4.0609	-10.3104	721.0951	-54.8974	258.9487	58.9041	734.8552	-0.0592	0.0182	-0.0073	-0.0462	0.0165	0.9585
12.007	-1.1609	-0.88437	-0.12299	0.085606	-0.8342	-1.6044	-9.1638	719.193	-53.3286	257.6966	55.9934	730.6983	-0.0592	0.0182	-0.0073	-0.0462	0.0165	0.9585
12.0205	-0.80671	0.491	0.024864	-0.3303	-0.5932	0.28675	-7.7416	720.4011	-52.0261	257.5228	53.3781	729.2398	-0.0592	0.0182	-0.0073	-0.0462	0.0165	0.9585
12.034	-0.54883	1.4498	0.11565	-0.61903	-0.42409	1.619	-6.1718	725.169	-51.1009	258.6206	51.2361	731.0246	-0.0592	0.0182	-0.0073	-0.0462	0.0165	0.9585
12.0475	-0.37399	2.0572	0.16533	-0.79965	-0.32127	2.4675	-4.5633	733.3153	-50.5791	260.9521	49.627	735.9627	-0.0592	0.0182	-0.0073	-0.0462	0.0165	0.9585
12.061	-0.28066	2.3787	0.1892	-0.88988	-0.2784	2.9157	-2.9708	744.0848	-50.441	264.2675	48.53	743.3722	-0.0592	0.0182	-0.0073	-0.0462	0.0165	0.9585
12.0745	-0.25854	2.4687	0.20814	-0.90383	-0.29367	3.0385	-1.3988	756.2728	-50.6147	268.1507	47.852	752.1036	-0.0592	0.0182	-0.0073	-0.0462	0.0165	0.9585
12.088	-0.29371	2.3584	0.23747	-0.8486	-0.3607	2.891	0.15467	768.4119	-51.0175	272.0854	47.4843	760.749	-0.0592	0.0182	-0.0073	-0.0462	0.0165	0.9585
12.1015	-0.37103	2.0428	0.29114	-0.71752	-0.47664	2.4894	1.6975	779.0051	-51.5574	275.5396	47.3154	767.875	-0.0592	0.0182	-0.0073	-0.0462	0.0165	0.9585
12.115	-0.47789	1.4893	0.36823	-0.4958	-0.6277	1.8055	3.2136	786.7579	-52.1519	278.0481	47.2609	772.2543	-0.0592	0.0182	-0.0073	-0.0462	0.0165	0.9585
12.1285	-0.59795	0.66301	0.47783	-0.16704	-0.80951	0.80503	4.6719	790.7884	-52.7023	279.2943	47.2296	773.0582	-0.0592	0.0182	-0.0073	-0.0462	0.0165	0.9585
12.142	-0.6914	-0.45698	0.60442	0.27791	-0.98936	-0.53623	6.0493	790.7578	-53.115	279.1542	47.1306	769.9841	-0.0592	0.0182	-0.0073	-0.0462	0.0165	0.9585
12.1555	-0.71741	-1.8499	0.73319	0.83123	-1.1347	-2.1888	7.3341	786.8834	-53.332	277.6976	46.8938	763.2758	-0.0592	0.0182	-0.0073	-0.0462	0.0165	0.9585
12.169	-0.61872	-3.3942	0.82144	1.4451	-1.1774	-4.014	8.5303	779.8953	-53.3579	275.1698	46.4976	753.6685	-0.0592	0.0182	-0.0073	-0.0462	0.0165	0.9585
12.1825	-0.3235	-4.8335	0.82229	2.0171	-1.0329	-5.7157	9.6761	770.9595	-53.2469	271.9643	45.9543	742.3001	-0.0592	0.0182	-0.0073	-0.0462	0.0165	0.9585
12.196	0.26534	-5.7265	0.65179	2.366	-0.57349	-6.7866	10.8539	761.4528	-53.0855	268.5454	45.299	730.4869	-0.0592	0.0182	-0.0073	-0.0462	0.0165	0.9585
12.2095	1.2366	-5.3878	0.22035	2.2146	0.33432	-6.4333	12.1571	752.6683	-52.9733	265.3505	44.5838	719.4559	-0.0592	0.0182	-0.0073	-0.0462	0.0165	0.9585
12.223	2.6616	-2.8492	-0.57947	1.1764	1.834	-3.5551	13.6569	745.6332	-52.9759	262.7285	43.8444	710.1827	-0.0592	0.0182	-0.0073	-0.0462	0.0165	0.9585
12.2365	4.555	3.1193	-1.8481	-1.2357	4.0386	3.2378	15.3803	740.8926	-53.1233	260.8619	43.1081	703.1927	-0.0592	0.0182	-0.0073	-0.0462	0.0165	0.9585
12.25	6.8138	13.9027	-3.6469	-5.5706	6.9705	15.5183	17.2887	738.3322	-53.4019	259.7032	42.3919	698.4071	-0.0592	0.0182	-0.0073	-0.0462	0.0165	0.9585
12.2635	9.1554	30.814	-5.9612	-12.3479	10.486	34.7806	19.298	737.0752	-53.7458	258.9396	41.6801	695.0302	-0.0592	0.0182	-0.0073	-0.0462	0.0165	0.9585
12.277	11.0322	54.6744	-8.6235	-21.8909	14.1639	61.973	21.2997	735.5642	-54.0429	258.0251	40.921	691.6333	-0.0592	0.0182	-0.0073	-0.0462	0.0165	0.9585
12.2905	11.5624	85.187	-11.2355	-34.0784	17.1886	96.7844	23.1641	731.8293	-54.1265	256.276	40.0194	686.4099	-0.0592	0.0182	-0.0073	-0.0462	0.0165	0.9585
12.304	9.754	120.3828	-13.0711	-48.108	18.3548	137.0365	24.7354	723.8715	-53.8154	253.0074	38.8775	677.5162	-0.0592	0.0182	-0.0073	-0.0462	0.0165	0.9585
12.3175	5.526	156.6013	-13.3645	-62.4675	16.7743	178.6594	25.8729	710.1211	-52.9539	247.693	37.418	663.4891	-0.0592	0.0182	-0.0073	-0.0462	0.0165	0.9585
12.331	-0.20177	189.0399	-11.6278	-75.2259	12.3522	216.2251	26.5201	689.8316	-51.5032	240.1004	35.644	643.6038	-0.0592	0.0182	-0.0073	-0.0462	0.0165	0.9585
12.3445	-6.1625	215.1557	-8.2105	-85.3797	5.9954	246.7105	26.7356	663.3086	-49.5562	230.3636	33.6343	618.0928	-0.0592	0.0182	-0.0073	-0.0462	0.0165	0.9585
12.358	-11.5081	235.7665	-3.7051	-93.2723	-1.2833	270.9234	26.676	631.7455	-47.2998	218.924	31.5051	588.0058	-0.0592	0.0182	-0.0073	-0.0462	0.0165	0.9585
12.3715	-15.7066	253.1484	1.0817	-99.8575	-8.3915	291.3151	26.5615	596.8038	-44.8467	206.3874	29.2778	554.8331	-0.0592	0.0182	-0.0073	-0.0462	0.0165	0.9585
12.385	-18.7498	269.5728	5.6225	-106.0805	-14.7238	310.3862	26.5662	560.1569	-42.1506	193.365	26.8498	520.1079	-0.0592	0.0182	-0.0073	-0.0462	0.0165	0.9585
12.3985	-20.8426	286.7875	9.4244	-112.6724	-19.8224	330.0134	26.7613	523.1611	-39.0449	180.3526	24.0511	485.0963	-0.0592	0.0182	-0.0073	-0.0462	0.0165	0.9585
12.412	-22.1471	306.1451	12.395	-120.1797	-23.6358	351.6416	27.1124	486.7014	-35.4103	167.6667	20.787	450.6487	-0.0592	0.0182	-0.0073	-0.0462	0.0165	0.9585
12.4255	-22.8317	328.7686	14.5869	-129.025	-26.2835	376.4776	27.5027	451.1745	-31.2518	155.4338	17.0937	417.1717	-0.0592	0.0182	-0.0073	-0.0462	0.0165	0.9585
12.439	-23.0887	355.2573	16.383	-139.3956	-28.248	405.1521	27.7708	416.4576	-26.7259	143.5816	13.1546	384.5759	-0.0592	0.0182	-0.0073	-0.0462	0.0165	0.9585
12.4525	-23.16	385.5296	18.2258	-151.2006	-30.1001	437.5558	27.7176	382.0243	-22.0645	131.8863	9.2263	352.3939	-0.0592	0.0182	-0.0073	-0.0462	0.0165	0.9585
12.466	-23.2748	419.122	20.5483	-164.1986	-32.3935	473.1775	27.1537	347.1626	-17.5303	120.0577	5.5897	319.9773	-0.0592	0.0182	-0.0073	-0.0462	0.0165	0.9585
12.4795	-23.6057	455.5785	23.5748	-178.1649	-35.4365	511.4922	25.9116	311.2736	-13.3407	107.8511	2.4791	286.7796	-0.0592	0.0182	-0.0073	-0.0462	0.0165	0.9585
12.493	-24.1971	494.6352	27.3684	-192.9618	-39.3102	552.1788	23.8733	274.1263	-9.6544	95.1614	0.063992	252.5764	-0.0592	0.0182	-0.0073	-0.0462	0.0165	0.9585
12.5065	-24.9408	536.0662	31.8368	-208.4812	-43.8788	594.9337	21.016	236.0431	-6.561	82.0889	-1.5708	217.6291	-0.0592	0.0182	-0.0073	-0.0462	0.0165	0.9585
12.52	-25.6763	579.3777	36.8333	-224.5206	-48.9276	639.18	17.4446	197.9073	-4.0947	68.9383	-2.429	182.7054	-0.0592	0.0182	-0.0073	-0.0462	0.0165	0.9585
12.5335	-26.2388	623.5955	42.184	-240.6991	-54.2211	683.855	13.4153	160.9786	-2.2483	56.1543	-2.6006	148.9038	-0.0592	0.0182	-0.0073	-0.0462	0.0165	0.9585
12.547	-26.5379	667.2251	47.7261	-256.4482	-59.5626	727.3906	9.2655	126.6324	-0.9738	44.2267	-2.2455	117.4395	-0.0592	0.0182	-0.0073	-0.0462	0.0165	0.9585
12.5605	-26.5606	708.4187	53.2968	-271.0789	-64.7945	767.905	5.3612	96.0269	-0.19593	33.5716	-1.5553	89.3398	-0.0592	0.0182	-0.0073	-0.0462	0.0165	0.9585
12.574	-26.3331	745.2427	58.6687	-283.8968	-69.715	803.4579	2.0094	69.8425	0.20866	24.4402	-0.73967	65.2148	-0.0592	0.0182	-0.0073	-0.0462	0.0165	0.9585
